<svg width="150" height="93" viewBox="0 0 150 93" fill="none" xmlns="http://www.w3.org/2000/svg">
<g clip-path="url(#clip0_1438_3557)">
<g filter="url(#filter0_d_1438_3557)">
<path d="M6.08297 21.0622C4.93334 21.0622 4.16895 21.5834 3.57691 22.5553V10.4143H9.59875C12.3826 10.4143 13.6701 11.2124 14.6798 13.9178H14.9596L14.0878 9.99805H-0.0078125V10.1718C1.27969 10.3112 1.7663 11.1437 1.7663 12.7035V31.5727C1.7663 33.1325 1.27969 33.9649 -0.0078125 34.1043V34.2781H5.35102V34.1043C4.06352 33.9649 3.57691 33.1325 3.57691 31.5727V22.9715C4.20342 22.1734 4.93334 21.8603 5.69976 21.8603C7.37046 21.8603 8.97223 23.1433 10.7119 23.1433C11.9649 23.1433 12.7658 22.4846 13.3923 21.341L13.2179 21.2359C12.5914 22.034 11.8615 22.3472 11.0951 22.3472C9.42438 22.3472 7.82261 21.0622 6.08297 21.0622Z" fill="#1FC5B0"/>
<path d="M18.6497 20.6813C18.6497 19.8852 18.0577 19.5034 17.3277 19.5034C17.9887 18.0123 19.9372 16.9353 22.0966 16.9353C23.8362 16.9353 26.7599 17.8728 26.7599 21.3056C26.7599 25.3991 14.8906 24.7061 14.8906 30.915C14.8906 33.3416 16.8046 34.6266 19.2418 34.6266C23.1408 34.6266 25.5069 30.915 26.7599 27.0296V32.2667C26.7599 34.3478 27.8731 34.6266 28.7449 34.6266C29.5093 34.6266 30.1358 34.174 30.519 33.6891L30.4156 33.5861C30.2068 33.7578 29.858 33.8972 29.4748 33.8972C28.9538 33.8972 28.4996 33.6891 28.4996 32.4748V21.8956C28.4996 19.364 26.7944 16.5898 22.0966 16.5898C18.893 16.5898 16.2836 18.4285 16.2836 20.6813C16.2836 21.342 16.8046 21.8613 17.4656 21.8613C18.1286 21.8613 18.6497 21.342 18.6497 20.6813ZM26.7599 25.886C25.5414 29.9432 22.9664 34.174 19.625 34.174C17.8833 34.174 16.7702 32.8567 16.7702 30.7756C16.7702 25.3991 24.2194 25.886 26.7599 22.5563V25.886Z" fill="#1FC5B0"/>
<path d="M31.8074 31.5737C31.8074 33.1335 31.3187 33.9659 30.0312 34.1053V34.2791H35.3232V34.1053C34.0336 33.9659 33.547 33.1335 33.547 31.5737V22.7988C33.8613 20.0226 36.193 17.0404 39.2546 17.0404C41.274 17.0404 42.8069 18.1496 42.8069 21.5137V31.5737C42.8069 33.1335 42.3182 33.9659 41.0307 34.1053V34.2791H46.3206V34.1053C45.0331 33.9659 44.5465 33.1335 44.5465 31.5737V23.4231C44.5465 20.4732 46.9836 17.0404 50.2886 17.0404C52.308 17.0404 53.8408 18.1496 53.8408 21.5137V32.2667C53.8408 34.3478 54.954 34.6266 55.8238 34.6266C56.5902 34.6266 57.2167 34.174 57.5999 33.6891L57.4945 33.5861C57.2857 33.7578 56.9369 33.8972 56.5557 33.8972C56.0326 33.8972 55.5805 33.6891 55.5805 32.4748V21.342C55.5805 19.2609 54.5018 16.5898 50.4974 16.5898C47.4358 16.5898 45.3474 18.9477 44.5465 21.3056C44.5465 19.2245 43.4334 16.5898 39.4634 16.5898C36.4363 16.5898 34.3824 18.879 33.547 21.2026V16.7636L30.2056 17.9759V18.1496C31.4242 18.1496 31.8074 18.5659 31.8074 19.7802V31.5737Z" fill="#1FC5B0"/>
<path d="M58.3624 11.2124C58.3624 11.9054 58.8855 12.4267 59.581 12.4267C60.2764 12.4267 60.7995 11.9054 60.7995 11.2124C60.7995 10.5193 60.2764 9.99805 59.581 9.99805C58.8855 9.99805 58.3624 10.5193 58.3624 11.2124ZM57.2837 17.9749V18.1486C58.5023 18.1486 58.8855 18.5649 58.8855 19.7792V31.5727C58.8855 33.1325 58.3969 33.9649 57.1094 34.1043V34.2781H62.4013V34.1043C61.1118 33.9649 60.6252 33.1325 60.6252 31.5727V16.7626L57.2837 17.9749Z" fill="#1FC5B0"/>
<path d="M62.3306 7.84809V8.01983C63.5492 8.01983 63.9324 8.43605 63.9324 9.65036V31.5725C63.9324 33.1323 63.4437 33.9647 62.1562 34.1042V34.2779H67.4482V34.1042C66.1586 33.9647 65.672 33.1323 65.672 31.5725V6.63379L62.3306 7.84809Z" fill="#1FC5B0"/>
<path d="M70.4715 19.64C69.9139 18.1832 70.0883 17.2477 71.3758 17.1083V16.9346H66.0149V17.1083C67.3389 17.2821 68.0344 18.1832 68.592 19.64L74.4394 34.7996L73.2209 37.9899C71.9678 41.2853 70.2627 41.7702 69.2185 41.7702C68.1743 41.7702 67.5133 41.3197 67.199 40.7297C67.8255 40.6953 68.3487 40.2104 68.3487 39.5497C68.3487 38.8911 67.8255 38.3718 67.1646 38.3718C66.5036 38.3718 65.9805 38.8911 65.9805 39.5497C65.9805 41.2853 67.5133 42.1178 69.0786 42.1178C70.8202 42.1178 72.491 41.2853 73.8129 37.8849L80.8445 19.64C81.4 18.1832 82.0975 17.2821 83.4195 17.1083V16.9346H79.3826V17.1083C80.6701 17.2477 80.147 19.9875 79.5915 21.4443L75.3782 32.371L70.4715 19.64Z" fill="#1FC5B0"/>
<path d="M42.4107 54.002C41.4638 54.002 40.8333 54.4303 40.3467 55.2304V45.2311H45.304C47.5972 45.2311 48.6596 45.8898 49.4909 48.1163H49.72L49.0023 44.8896H37.3945V45.0311C38.4549 45.1462 38.8564 45.8312 38.8564 47.1162V62.6557C38.8564 63.9407 38.4549 64.6277 37.3945 64.7408V64.8843H41.8085V64.7408C40.7481 64.6277 40.3467 63.9407 40.3467 62.6557V55.5719C40.8617 54.9152 41.4638 54.6586 42.0944 54.6586C43.4711 54.6586 44.789 55.7153 46.2225 55.7153C47.2545 55.7153 47.9135 55.1718 48.4285 54.2303L48.2866 54.1434C47.7695 54.8001 47.1674 55.0587 46.5368 55.0587C45.1621 55.0587 43.8422 54.002 42.4107 54.002Z" fill="#1FC5B0"/>
<path d="M51.1523 57.7437C51.1523 62.2271 54.1065 65.1689 58.6056 65.1689C63.1068 65.1689 66.0589 62.2271 66.0589 57.7437C66.0589 53.2582 63.1068 50.3164 58.6056 50.3164C54.1065 50.3164 51.1523 53.2582 51.1523 57.7437ZM52.7014 57.7437C52.7014 53.43 55.0513 50.6013 58.6056 50.6013C62.1599 50.6013 64.5119 53.43 64.5119 57.7437C64.5119 62.0554 62.1599 64.884 58.6056 64.884C55.0513 64.884 52.7014 62.0554 52.7014 57.7437Z" fill="#1FC5B0"/>
<path d="M68.9541 62.6554C68.9541 63.9405 68.5546 64.6274 67.4922 64.7406V64.884H71.8494V64.7406C70.789 64.6274 70.3875 63.9405 70.3875 62.6554V58.4569C70.3875 54.2301 72.3664 50.7447 74.7731 50.7447C75.2618 50.7447 75.72 50.8882 76.0059 51.1731C75.4909 51.2014 75.0894 51.6297 75.0894 52.1449C75.0894 52.6864 75.5193 53.1148 76.0647 53.1148C76.6081 53.1148 77.0379 52.6864 77.0379 52.1449C77.0379 51.0013 76.2066 50.3164 74.8887 50.3164C72.7091 50.3164 71.1337 52.2864 70.3875 55.7434V50.4599L67.6361 51.458V51.6014C68.6398 51.6014 68.9541 51.9449 68.9541 52.943V62.6554Z" fill="#1FC5B0"/>
<path d="M80.7643 47.5742H80.4763C80.4763 49.4876 79.4159 50.6009 77.6094 50.6009V50.9444H79.3308V62.3702C79.3308 64.3118 80.448 65.1685 81.8814 65.1685C83.171 65.1685 84.2598 64.427 84.6328 62.9137L84.4889 62.8834C84.0023 64.3118 82.8567 64.5684 82.3397 64.5684C81.8247 64.5684 80.7643 64.3704 80.7643 62.7136V50.9444H84.7768V50.6009H80.7643V47.5742Z" fill="#1FC5B0"/>
<path d="M86.6676 61.0573C86.6676 63.0556 87.5273 65.169 91.11 65.169C93.7478 65.169 95.5828 63.1708 96.2701 61.2271V63.2273C96.2701 64.9407 97.1866 65.169 97.9043 65.169C98.5349 65.169 99.0499 64.7993 99.3662 64.3992L99.279 64.3123C99.1067 64.4558 98.8208 64.5689 98.5065 64.5689C98.0767 64.5689 97.7036 64.3992 97.7036 63.3991V50.46L94.9522 51.4581V51.6015C95.9538 51.6015 96.2701 51.945 96.2701 52.9431V59.542C96.2701 61.9706 94.1493 64.7993 91.2255 64.7993C89.4474 64.7993 88.1011 63.884 88.1011 61.1139V50.46L85.3477 51.4581V51.6015C86.3513 51.6015 86.6676 51.945 86.6676 52.9431V61.0573Z" fill="#1FC5B0"/>
<path d="M102.06 62.6554C102.06 63.9405 101.66 64.6274 100.598 64.7406V64.884H104.955V64.7406C103.894 64.6274 103.493 63.9405 103.493 62.6554V55.9434C103.493 53.5148 105.585 50.6882 108.452 50.6882C110.202 50.6882 111.52 51.6014 111.52 54.3715V63.2272C111.52 64.9406 112.437 65.1689 113.154 65.1689C113.785 65.1689 114.3 64.7992 114.616 64.3991L114.529 64.3122C114.357 64.4557 114.071 64.5688 113.756 64.5688C113.327 64.5688 112.954 64.3991 112.954 63.399V54.2301C112.954 52.5147 112.007 50.3164 108.568 50.3164C105.959 50.3164 104.182 52.2864 103.493 54.2301V50.4599L100.742 51.458V51.6014C101.745 51.6014 102.06 51.9449 102.06 52.943V62.6554Z" fill="#1FC5B0"/>
<path d="M119.088 53.6866C119.088 53.0299 118.602 52.7147 117.999 52.7147C118.543 51.4863 120.149 50.6013 121.927 50.6013C123.358 50.6013 125.767 51.3731 125.767 54.2018C125.767 57.5719 115.992 57.0001 115.992 62.114C115.992 64.1122 117.57 65.1689 119.575 65.1689C122.787 65.1689 124.735 62.114 125.767 58.9135V63.2272C125.767 64.9406 126.683 65.1689 127.401 65.1689C128.032 65.1689 128.547 64.7992 128.863 64.3991L128.776 64.3122C128.606 64.4557 128.318 64.5688 128.003 64.5688C127.574 64.5688 127.201 64.3991 127.201 63.399V54.6867C127.201 52.6016 125.795 50.3164 121.927 50.3164C119.289 50.3164 117.14 51.8297 117.14 53.6866C117.14 54.2301 117.57 54.6584 118.113 54.6584C118.658 54.6584 119.088 54.2301 119.088 53.6866ZM125.767 57.972C124.763 61.3138 122.643 64.7992 119.891 64.7992C118.458 64.7992 117.541 63.7122 117.541 61.9988C117.541 57.5719 123.675 57.972 125.767 55.2302V57.972Z" fill="#1FC5B0"/>
<path d="M132.819 47.5742H132.531C132.531 49.4876 131.471 50.6009 129.664 50.6009V50.9444H131.385V62.3702C131.385 64.3118 132.503 65.1685 133.936 65.1685C135.226 65.1685 136.314 64.427 136.688 62.9137L136.544 62.8834C136.057 64.3118 134.911 64.5684 134.394 64.5684C133.879 64.5684 132.819 64.3704 132.819 62.7136V50.9444H136.831V50.6009H132.819V47.5742Z" fill="#1FC5B0"/>
<path d="M150.044 61.4553C148.669 63.6556 146.433 64.6274 144.225 64.6274C142.449 64.6274 140.671 63.6839 139.696 61.627C139.181 59.4005 140.413 57.972 142.964 57.0567L150.188 54.4584C149.213 51.858 147.035 50.3164 144.081 50.3164C140.04 50.3164 137.402 53.2582 137.402 57.7437C137.402 62.2271 140.04 65.1689 144.081 65.1689C146.806 65.1689 149.099 63.8273 150.302 61.5987L150.044 61.4553ZM143.221 56.6001C140.758 57.485 139.324 58.5721 139.324 60.5986C139.095 59.7702 138.951 58.8287 138.951 57.7437C138.951 53.43 141.015 50.6013 144.081 50.6013C146.204 50.6013 147.838 51.9449 148.669 54.2018C148.755 54.4301 148.639 54.6301 148.41 54.715L143.221 56.6001Z" fill="#1FC5B0"/>
</g>
<path d="M55.2288 75.608C54.8658 75.608 54.5516 75.4262 54.5313 75.0301H53.7852C53.7892 75.8424 54.4624 76.2061 55.2004 76.2061C55.8837 76.2061 56.5852 75.9171 56.5852 75.1332C56.5852 73.8643 54.655 74.2906 54.655 73.6986C54.655 73.4481 54.9449 73.3511 55.1497 73.3511C55.5187 73.3511 55.7215 73.4643 55.76 73.8118H56.4717C56.4473 73.0521 55.8289 72.749 55.1416 72.749C54.5313 72.749 53.8926 73.0723 53.8926 73.7572C53.8926 74.9857 55.8249 74.5695 55.8249 75.216C55.8249 75.5151 55.4599 75.608 55.2288 75.608Z" fill="#405975"/>
<path d="M60.6207 73.4636H61.5736V72.7969H58.9297V73.4636H59.8826V76.1266H60.6207V73.4636Z" fill="#405975"/>
<path d="M66.6441 74.4583C66.6441 74.9715 66.1778 75.4423 65.6608 75.4423C65.1458 75.4423 64.6774 74.9715 64.6774 74.4583C64.6774 73.9431 65.1458 73.4784 65.6608 73.4784C66.1778 73.4784 66.6441 73.9431 66.6441 74.4583ZM67.3801 74.4624C67.3801 73.541 66.5853 72.749 65.6608 72.749C64.7362 72.749 63.9414 73.541 63.9414 74.4624C63.9414 75.3837 64.7362 76.1757 65.6608 76.1757C66.5853 76.1757 67.3801 75.3837 67.3801 74.4624Z" fill="#405975"/>
<path d="M70.7576 74.9366H70.7616L71.5584 76.1266H72.4931L71.5341 74.9022C71.9558 74.7992 72.2965 74.4274 72.2965 73.8637C72.2965 73.2333 71.8139 72.7969 71.2726 72.7969H70.0195V76.1266H70.7576V74.9366ZM71.1509 73.3747C71.3679 73.3747 71.5929 73.5606 71.5929 73.8637C71.5929 74.1829 71.3679 74.3587 71.1509 74.3587H70.7576V73.3747H71.1509Z" fill="#405975"/>
<path d="M75.6365 76.1266V72.7969H74.8984V76.1266H75.6365Z" fill="#405975"/>
<path d="M80.3348 75.4599H79.1365V74.7891H80.2861V74.1243H79.1365V73.4636H80.3348V72.7969H78.3984V76.1266H80.3348V75.4599Z" fill="#405975"/>
<path d="M84.3928 75.607C84.0299 75.607 83.7156 75.4252 83.6954 75.0292H82.9492C82.9533 75.8414 83.6264 76.2051 84.3645 76.2051C85.0477 76.2051 85.7493 75.9162 85.7493 75.1322C85.7493 73.8633 83.819 74.2897 83.819 73.6977C83.819 73.4471 84.109 73.3501 84.3138 73.3501C84.6828 73.3501 84.8855 73.4633 84.9241 73.8108H85.6357C85.6114 73.0511 84.993 72.748 84.3057 72.748C83.6954 72.748 83.0567 73.0713 83.0567 73.7563C83.0567 74.9847 84.9889 74.5685 84.9889 75.215C84.9889 75.5141 84.624 75.607 84.3928 75.607Z" fill="#405975"/>
<path d="M94.3434 74.4574C94.3434 74.9706 93.877 75.4413 93.36 75.4413C92.845 75.4413 92.3766 74.9706 92.3766 74.4574C92.3766 73.9421 92.845 73.4774 93.36 73.4774C93.877 73.4774 94.3434 73.9421 94.3434 74.4574ZM95.0794 74.4614C95.0794 73.5401 94.2846 72.748 93.36 72.748C92.4354 72.748 91.6406 73.5401 91.6406 74.4614C91.6406 75.3827 92.4354 76.1748 93.36 76.1748C94.2846 76.1748 95.0794 75.3827 95.0794 74.4614Z" fill="#405975"/>
<path d="M99.6064 74.7891V74.1243H98.4568V73.4636H99.6551V72.7969H97.7188V76.1266H98.4568V74.7891H99.6064Z" fill="#405975"/>
<path d="M107.588 74.8537H106.743L107.167 73.6677L107.588 74.8537ZM108.837 76.1266L107.481 72.7969H106.856L105.5 76.1266H106.291L106.532 75.4558H107.805L108.047 76.1266H108.837Z" fill="#405975"/>
<path d="M114.73 76.1266H116.667V75.4599H115.468V72.7969H114.73V76.1266Z" fill="#405975"/>
<path d="M120.043 76.1266V72.7969H119.305V76.1266H120.043Z" fill="#405975"/>
<path d="M124.692 74.7891V74.1243H123.543V73.4636H124.741V72.7969H122.805V76.1266H123.543V74.7891H124.692Z" fill="#405975"/>
<path d="M129.389 75.4599H128.191V74.7891H129.341V74.1243H128.191V73.4636H129.389V72.7969H127.453V76.1266H129.389V75.4599Z" fill="#405975"/>
<path d="M133.574 73.4636H134.527V72.7969H131.883V73.4636H132.836V76.1266H133.574V73.4636Z" fill="#405975"/>
<path d="M137.754 76.1266V72.7969H137.016V76.1266H137.754Z" fill="#405975"/>
<path d="M144.681 76.1266L144.032 72.7969H143.156L142.464 75.1325L141.765 72.7969H140.891L140.242 76.1266H141.053L141.447 73.8293L142.099 76.1266H142.823L143.476 73.8293L143.869 76.1266H144.681Z" fill="#405975"/>
<path d="M149.108 75.4599H147.91V74.7891H149.06V74.1243H147.91V73.4636H149.108V72.7969H147.172V76.1266H149.108V75.4599Z" fill="#405975"/>
<path d="M49.9002 75.5806C50.2003 75.3684 50.33 75.1158 50.2915 74.8249C50.1313 74.1521 49.5089 73.9339 48.3755 74.2329C45.9079 74.9199 44.2372 75.0916 43.4221 74.7926C41.3459 74.1258 39.2515 72.1862 37.1306 69.0019C34.0325 63.3648 29.2191 60.324 22.7269 59.8875C23.2155 56.4729 23.0858 53.7251 22.3964 51.6905C22.1551 50.0115 22.3173 48.4254 22.8141 46.9201C24.0123 42.7539 23.3939 39.2201 20.9264 36.3086C14.5903 38.0624 10.8657 41.0648 9.86203 45.3118C9.22335 51.0197 12.3701 57.6549 19.3632 65.2701C29.7807 76.5504 36.9542 76.0554 42.6395 76.3019C46.4655 76.4635 48.8641 76.217 49.9002 75.5806Z" fill="#21C0AD"/>
<path d="M16.6255 61.3431C15.995 60.5592 15.4394 59.7571 14.9102 58.9974C13.9573 55.9848 13.8762 52.5783 14.6426 48.7374C15.628 44.4176 18.3834 39.2109 19.9568 36.758C20.3806 36.6105 20.8388 36.4731 21.3315 36.3418C21.4085 36.465 21.5261 36.564 21.6032 36.6873C20.93 37.5864 19.4195 39.6311 16.6661 45.5794C14.4074 50.4811 14.3729 55.7303 16.6255 61.3431Z" fill="#3F5F78"/>
<path d="M42.7813 75.9733C38.3936 75.7854 33.1564 76.0339 26.1817 70.8939C23.483 67.6086 22.4104 63.897 23.0227 59.8055L23.0694 59.6055C29.4947 60.0277 34.2392 63.0524 37.3069 68.6814C39.3932 71.8576 41.4877 73.7973 43.5294 74.456C44.379 74.7631 46.0172 74.5853 48.4503 73.8882C49.5776 73.6235 50.2082 73.8074 50.3663 74.4802C50.4049 74.7732 50.2751 75.0237 49.9771 75.2359C48.9389 75.8743 46.5748 76.1269 42.7813 75.9733Z" fill="#3F5F78"/>
</g>
<defs>
<filter id="filter0_d_1438_3557" x="-0.407813" y="6.63379" width="150.709" height="58.5352" filterUnits="userSpaceOnUse" color-interpolation-filters="sRGB">
<feFlood flood-opacity="0" result="BackgroundImageFix"/>
<feColorMatrix in="SourceAlpha" type="matrix" values="0 0 0 0 0 0 0 0 0 0 0 0 0 0 0 0 0 0 127 0" result="hardAlpha"/>
<feOffset dx="-0.4"/>
<feComposite in2="hardAlpha" operator="out"/>
<feColorMatrix type="matrix" values="0 0 0 0 0.121569 0 0 0 0 0.772549 0 0 0 0 0.690196 0 0 0 0.25 0"/>
<feBlend mode="normal" in2="BackgroundImageFix" result="effect1_dropShadow_1438_3557"/>
<feBlend mode="normal" in="SourceGraphic" in2="effect1_dropShadow_1438_3557" result="shape"/>
</filter>
<clipPath id="clip0_1438_3557">
<rect width="150" height="93" fill="white"/>
</clipPath>
</defs>
</svg>
